# Blender 4.2.2 LTS
# www.blender.org
mtllib Fence0.mtl
o Fence0
v -2.124804 4.388687 -0.109729
v -5.797070 1.841187 -0.267964
v -6.083583 3.816435 -0.140261
v -0.148776 -0.103556 -0.248870
v -1.900190 2.117329 0.072890
v -1.665431 4.103449 -0.195437
v 0.085990 1.882617 -0.127922
v -0.672366 3.985875 -0.047152
v 0.322172 3.881821 -0.377213
v -1.714474 1.123162 -0.023796
v -3.768169 2.006021 0.030349
v -1.771672 2.119151 0.258401
v -5.764846 1.894152 -0.161706
v -1.657618 0.124780 -0.143316
v -3.817767 2.125148 -0.344977
v -1.981474 3.398100 -0.267440
v -1.838362 2.405868 -0.536941
v -5.651149 -0.102613 -0.161706
v -2.134949 0.131209 -0.161706
v -5.857985 2.077756 -0.050499
v -5.409164 -0.080614 -0.094281
v -5.549185 -0.100464 0.047140
v -0.139952 4.396018 0.083925
v 0.000000 -0.000000 -0.094281
v -0.141421 0.000000 0.047140
v 0.139952 4.396018 0.083925
v 0.000000 4.398562 -0.071289
v -5.578122 2.117431 -0.050318
v -5.717964 2.097606 -0.191920
v -3.000000 4.017087 0.047143
v -6.000000 4.000000 -0.094278
v -6.000000 4.141421 0.047143
v -3.000000 3.875665 -0.094278
v -6.000000 3.858578 0.047143
v 0.000000 4.066759 0.088538
v 0.000000 4.206185 0.013963
v 0.000000 4.338282 0.100276
v -6.026764 4.275826 -0.094278
v -6.166786 4.255976 0.047143
v 0.141421 0.000000 0.047140
v -5.269143 -0.060763 0.047140
v -3.000000 3.734244 0.047143
v -5.886744 4.295676 0.047143
v -2.124371 4.387453 -0.099815
v -5.796881 1.840296 -0.258006
v -6.083567 3.815792 -0.130282
v -0.148291 -0.104143 -0.238899
v -1.897893 2.117732 0.082614
v -1.665628 4.103251 -0.185441
v 0.086092 1.882270 -0.117929
v -0.672126 3.985727 -0.037156
v 0.325387 3.882618 -0.367778
v -1.714973 1.121399 -0.013965
v -3.768963 2.004100 0.040130
v -1.772608 2.116387 0.267966
v -5.765130 1.893597 -0.151726
v -1.657934 0.123794 -0.133370
v -3.817065 2.123528 -0.335134
v -1.980626 3.396279 -0.257644
v -1.837085 2.403440 -0.527325
v -5.651195 -0.102616 -0.151706
v -2.134656 0.130002 -0.151783
v -5.850984 2.078748 -0.043428
v -5.409226 -0.080176 -0.084291
v -5.542231 -0.099161 0.054208
v -0.132535 4.395982 0.090632
v 0.000000 -0.000086 -0.084281
v -0.134350 -0.000062 0.054211
v 0.132535 4.395982 0.090632
v 0.000000 4.398510 -0.061289
v -5.585132 2.116437 -0.043256
v -5.717970 2.097605 -0.181920
v -2.999879 4.010040 0.054236
v -6.000008 3.999814 -0.084280
v -6.000293 4.134353 0.054211
v -3.000145 3.875976 -0.084284
v -5.999707 3.865646 0.054211
v -0.000838 4.071560 0.097270
v -0.000185 4.205340 0.023925
v 0.000437 4.332818 0.108639
v -6.026702 4.275388 -0.084288
v -6.159745 4.256658 0.054210
v 0.134350 -0.000062 0.054211
v -5.276185 -0.061446 0.054208
v -3.000285 3.741312 0.054211
v -5.893698 4.294375 0.054210
vn 0.4575 0.7184 -0.5240
vn -0.4966 -0.5927 -0.6341
vn -0.6636 0.5299 -0.5281
vn 0.4709 -0.6058 -0.6413
vn -0.8419 0.0554 -0.5368
vn -0.4867 0.6678 -0.5632
vn 0.6812 -0.0654 -0.7292
vn 0.0604 0.7564 -0.6513
vn 0.4819 0.4998 -0.7198
vn 0.7252 0.1578 -0.6702
vn 0.0044 0.8227 -0.5684
vn 0.5779 0.7320 -0.3608
vn -0.6069 0.5771 -0.5465
vn 0.6375 -0.4927 -0.5923
vn 0.0404 -0.5807 -0.8131
vn 0.6495 0.2385 -0.7220
vn 0.5838 -0.3409 -0.7369
vn -0.5299 -0.5961 -0.6032
vn -0.6820 -0.4606 -0.5680
vn -0.9899 -0.1403 -0.0202
vn 0.0846 -0.5963 -0.7983
vn -0.7167 -0.6969 0.0264
vn -0.8218 0.5687 0.0349
vn -0.0000 -0.5725 -0.8199
vn -0.8148 -0.5797 0.0052
vn 0.8218 0.5687 0.0349
vn -0.0000 0.5795 -0.8150
vn 0.9899 0.1403 -0.0192
vn 0.0006 0.0001 -1.0000
vn -0.0309 0.9990 -0.0326
vn -0.5768 0.0219 -0.8166
vn -0.5546 0.8321 -0.0002
vn 0.0145 -0.0311 -0.9994
vn -0.5990 -0.8007 -0.0006
vn 0.6655 -0.7290 -0.1605
vn 0.6197 0.0759 -0.7812
vn 0.5538 0.8258 -0.1070
vn -0.0845 0.5963 -0.7983
vn -0.8822 0.4702 0.0264
vn 0.8148 -0.5797 0.0052
vn 0.8821 -0.4703 0.0267
vn 0.0367 -0.9986 -0.0380
vn 0.7167 0.6969 0.0267
vn 0.5192 0.5871 0.6210
vn -0.6447 0.4430 0.6230
vn -0.4860 -0.7060 0.5152
vn 0.5382 -0.6717 0.5091
vn -0.5116 0.6267 0.5878
vn -0.5395 0.1156 0.8340
vn 0.7139 -0.1162 0.6905
vn 0.7621 0.5185 0.3878
vn 0.0861 0.6510 0.7542
vn 0.6851 -0.0904 0.7228
vn 0.4944 0.4404 0.7494
vn -0.1091 0.5628 0.8193
vn -0.6186 0.5017 0.6046
vn 0.5803 -0.5952 0.5559
vn 0.1386 -0.7997 0.5841
vn 0.7041 -0.6010 0.3782
vn 0.7461 -0.0228 0.6654
vn -0.5575 -0.6215 0.5504
vn -0.5957 -0.5581 0.5777
vn 0.0075 0.0011 1.0000
vn 0.0927 -0.5396 0.8368
vn 0.1249 -0.8810 0.4564
vn 0.0348 0.5746 0.8177
vn 0.0144 -0.5772 0.8164
vn -0.0000 -0.9114 0.4115
vn -0.0348 0.5746 0.8177
vn -0.0000 0.9175 0.3979
vn -0.0084 -0.0012 1.0000
vn -0.0006 -0.0001 1.0000
vn -0.0132 -0.0174 0.9998
vn -0.5841 0.0096 0.8117
vn -0.9082 0.0024 0.4185
vn -0.0145 0.0304 0.9994
vn -0.5692 0.0208 0.8219
vn 0.5261 -0.1386 0.8391
vn 0.8323 -0.0332 0.5534
vn 0.5534 0.1532 0.8187
vn -0.1249 0.8810 0.4564
vn -0.0610 0.5441 0.8368
vn -0.0144 -0.5772 0.8164
vn 0.0607 -0.5440 0.8369
vn -0.0014 -0.0624 0.9980
vn -0.0929 0.5395 0.8369
vt 0.456000 1.000000
vt 0.000000 0.000100
vt 0.456000 0.000100
vt 0.460200 0.000100
vt 0.916900 0.500000
vt 0.916900 1.000000
vt 0.460200 0.500000
vt 0.688500 1.000000
vt 0.460200 1.000000
vt 0.688600 0.000100
vt 0.460200 0.999900
vt 0.916900 0.000100
vt 0.000000 0.500000
vt 0.228000 1.000000
vt 0.000000 1.000000
vt 0.916900 0.999900
vt 0.998000 0.366300
vt 0.974000 0.731000
vt 0.998000 0.731000
vt 0.950100 0.729300
vt 0.974000 0.001600
vt 0.950100 0.001600
vt 0.998000 0.729300
vt 0.974000 0.729300
vt 0.950100 0.366300
vt 0.974000 0.366300
vt 0.998000 0.498000
vt 0.998000 0.001600
vt 0.974000 0.497200
vt 0.950100 0.994400
vt 0.974000 0.996600
vt 0.998000 0.998800
vt 0.974000 0.002300
vt 0.998000 0.001300
vt 0.950100 0.731000
vt 0.950100 0.496500
vt 0.950100 0.001300
s 1
usemtl Fence
f 1/1/1 2/2/2 3/3/3
f 4/4/4 5/5/5 6/6/6
f 7/7/7 8/8/8 9/9/9
f 6/6/6 8/8/8 4/4/4
f 7/7/7 4/4/4 8/8/8
f 10/10/10 11/7/11 12/4/12
f 13/11/13 11/7/11 14/12/14
f 10/10/10 14/12/14 11/7/11
f 15/13/15 16/14/16 17/15/17
f 15/13/15 2/2/2 1/1/1
f 1/1/1 16/14/16 15/13/15
f 13/11/13 14/12/14 18/16/18
f 4/4/4 19/12/19 5/5/5
f 20/17/20 21/18/21 22/19/22
f 23/20/23 24/21/24 25/22/25
f 26/23/26 24/21/24 27/24/27
f 28/25/28 21/18/21 29/26/29
f 30/27/30 31/21/31 32/28/32
f 33/29/33 34/22/34 31/21/31
f 35/30/35 33/29/33 36/31/36
f 36/31/36 30/27/30 37/32/37
f 38/33/38 28/25/28 29/26/29
f 38/33/38 20/17/20 39/34/39
f 20/17/20 29/26/29 21/18/21
f 23/20/23 27/24/27 24/21/24
f 26/23/26 40/28/40 24/21/24
f 28/25/28 41/35/41 21/18/21
f 30/27/30 33/29/33 31/21/31
f 33/29/33 42/36/42 34/22/34
f 35/30/35 42/36/42 33/29/33
f 36/31/36 33/29/33 30/27/30
f 38/33/38 43/37/43 28/25/28
f 38/33/38 29/26/29 20/17/20
f 44/1/44 46/3/45 45/2/46
f 47/4/47 49/6/48 48/5/49
f 50/7/50 52/9/51 51/8/52
f 49/6/48 47/4/47 51/8/52
f 50/7/50 51/8/52 47/4/47
f 53/10/53 55/4/54 54/7/55
f 56/11/56 57/12/57 54/7/55
f 53/10/53 54/7/55 57/12/57
f 58/13/58 60/15/59 59/14/60
f 58/13/58 44/1/44 45/2/46
f 44/1/44 58/13/58 59/14/60
f 56/11/56 61/16/61 57/12/57
f 47/4/47 48/5/49 62/12/62
f 63/17/63 65/19/64 64/18/65
f 66/20/66 68/22/67 67/21/68
f 69/23/69 70/24/70 67/21/68
f 71/25/71 72/26/72 64/18/65
f 73/27/73 75/28/74 74/21/75
f 76/29/76 74/21/75 77/22/77
f 78/30/78 79/31/79 76/29/76
f 79/31/79 80/32/80 73/27/73
f 81/33/81 72/26/72 71/25/71
f 81/33/81 82/34/82 63/17/63
f 63/17/63 64/18/65 72/26/72
f 66/20/66 67/21/68 70/24/70
f 69/23/69 67/21/68 83/28/83
f 71/25/71 64/18/65 84/35/84
f 73/27/73 74/21/75 76/29/76
f 76/29/76 77/22/77 85/36/85
f 78/30/78 76/29/76 85/36/85
f 79/31/79 73/27/73 76/29/76
f 81/33/81 71/25/71 86/37/86
f 81/33/81 63/17/63 72/26/72
f 1/1/1 3/3/3 46/3/45 44/1/44
f 3/3/3 2/2/2 45/2/46 46/3/45
f 6/6/6 5/5/5 48/5/49 49/6/48
f 7/7/7 9/9/9 52/9/51 50/7/50
f 9/9/9 8/8/8 51/8/52 52/9/51
f 8/8/8 6/6/6 49/6/48 51/8/52
f 4/4/4 7/7/7 50/7/50 47/4/47
f 10/10/10 12/4/12 55/4/54 53/10/53
f 12/4/12 11/7/11 54/7/55 55/4/54
f 11/7/11 13/11/13 56/11/56 54/7/55
f 14/12/14 10/10/10 53/10/53 57/12/57
f 15/13/15 17/15/17 60/15/59 58/13/58
f 17/15/17 16/14/16 59/14/60 60/15/59
f 2/2/2 15/13/15 58/13/58 45/2/46
f 16/14/16 1/1/1 44/1/44 59/14/60
f 13/11/13 18/16/18 61/16/61 56/11/56
f 18/16/18 14/12/14 57/12/57 61/16/61
f 19/12/19 4/4/4 47/4/47 62/12/62
f 5/5/5 19/12/19 62/12/62 48/5/49
f 20/17/20 22/19/22 65/19/64 63/17/63
f 22/19/22 21/18/21 64/18/65 65/19/64
f 23/20/23 25/22/25 68/22/67 66/20/66
f 25/22/25 24/21/24 67/21/68 68/22/67
f 26/23/26 27/24/27 70/24/70 69/23/69
f 30/27/30 32/28/32 75/28/74 73/27/73
f 32/28/32 31/21/31 74/21/75 75/28/74
f 31/21/31 34/22/34 77/22/77 74/21/75
f 35/30/35 36/31/36 79/31/79 78/30/78
f 36/31/36 37/32/37 80/32/80 79/31/79
f 37/32/37 30/27/30 73/27/73 80/32/80
f 38/33/38 39/34/39 82/34/82 81/33/81
f 39/34/39 20/17/20 63/17/63 82/34/82
f 27/24/27 23/20/23 66/20/66 70/24/70
f 40/28/40 26/23/26 69/23/69 83/28/83
f 24/21/24 40/28/40 83/28/83 67/21/68
f 41/35/41 28/25/28 71/25/71 84/35/84
f 21/18/21 41/35/41 84/35/84 64/18/65
f 34/22/34 42/36/42 85/36/85 77/22/77
f 42/36/42 35/30/35 78/30/78 85/36/85
f 43/37/43 38/33/38 81/33/81 86/37/86
f 28/25/28 43/37/43 86/37/86 71/25/71
