# Blender 4.2.2 LTS
# www.blender.org
mtllib Cactus.mtl
o Cactus
v 0.187794 -0.005716 -0.930004
v 0.339949 2.451410 -1.186430
v -0.297695 -0.005716 -0.728908
v 0.152683 6.481373 -0.839356
v 0.152683 6.121106 -1.030759
v 0.152683 4.822896 -1.030759
v 0.825434 2.451390 -0.985331
v 1.026529 2.451390 -0.499844
v 0.874374 -0.005716 -0.243420
v 0.825434 2.451390 -0.014359
v 0.673279 -0.005716 0.242065
v 0.339949 2.451390 0.186737
v 0.187792 -0.005716 0.443160
v -0.145538 2.451390 -0.014359
v -0.297695 -0.005716 0.242065
v -0.346634 2.451390 -0.499844
v -0.498789 -0.005716 -0.243420
v -0.145538 2.451390 -0.985331
v -0.533901 4.822857 -0.344176
v -0.332806 4.822857 0.141311
v 0.152679 4.822857 0.342405
v 0.839260 4.822857 -0.344176
v 0.638166 4.822857 -0.829663
v -0.533901 6.121058 -0.344176
v -0.332806 6.121058 -0.829663
v -0.332806 6.121058 0.141311
v 0.152679 6.121058 0.342406
v 0.638166 6.121058 0.141311
v 0.839260 6.121058 -0.344176
v 0.638166 6.121058 -0.829663
v -0.342499 6.481322 -0.344176
v -0.197464 6.481322 -0.694319
v -0.197464 6.481322 0.005968
v 0.152679 6.481322 0.151003
v 0.502825 6.481322 0.005968
v 0.647860 6.481322 -0.344176
v 0.502825 6.481322 -0.694319
v 0.152679 6.788092 -0.344177
v 0.187792 5.724628 -2.486202
v 0.574020 5.724628 -2.263211
v 0.574020 5.724628 -1.817235
v 0.187792 5.724628 -1.594247
v -0.198433 5.724628 -1.817235
v -0.198433 5.724628 -2.263211
v -0.125057 5.966932 -2.220847
v 0.187792 5.966932 -2.401471
v -0.125057 5.966932 -1.859600
v 0.187792 5.966932 -1.678975
v 0.500641 5.966932 -1.859599
v 0.500641 5.966932 -2.220847
v 0.187792 6.201983 -2.040223
v 0.574020 3.576694 -2.308835
v 0.187792 3.419017 -2.549270
v 0.574020 3.180667 -1.946937
v 0.574020 3.892046 -1.827971
v 0.187792 4.049723 -1.587537
v -0.198433 3.892046 -1.827971
v -0.198433 3.576694 -2.308835
v 0.187792 2.987554 -2.135259
v 0.574020 3.125134 -0.805257
v 0.574020 3.566894 -1.570294
v 0.187792 3.760007 -1.381973
v -0.198433 3.566894 -1.570294
v -0.198433 3.180667 -1.946937
v 0.574020 3.571110 -0.805257
v 0.187792 3.794098 -0.805257
v -0.198433 3.571110 -0.805257
v -0.198433 3.125134 -0.805257
v 0.187792 2.902146 -0.805257
v 0.187792 5.491942 1.696661
v -0.198433 5.491942 1.473671
v -0.198433 5.491942 1.027695
v 0.187792 5.491942 0.804707
v 0.574020 5.491942 1.027695
v 0.574020 5.491942 1.473671
v 0.500641 5.799998 1.431306
v 0.187792 5.799998 1.611930
v 0.500641 5.799998 1.070058
v 0.187792 5.799998 0.889436
v -0.125057 5.799998 1.070058
v -0.125057 5.799998 1.431306
v 0.187792 6.098837 1.250684
v -0.198433 2.817317 1.519296
v 0.187792 2.659639 1.759727
v -0.198433 2.421290 1.157397
v -0.198433 3.132670 1.038429
v 0.187792 3.290346 0.797996
v 0.574020 3.132670 1.038430
v 0.574020 2.817317 1.519296
v 0.187792 2.228176 1.345718
v -0.198433 2.365758 -0.167724
v -0.198433 2.807516 0.780754
v 0.187794 3.000630 0.592434
v 0.574020 2.807516 0.780755
v 0.574020 2.421290 1.157397
v -0.198433 2.811734 -0.167724
v 0.187794 3.034722 -0.167724
v 0.574020 2.811733 -0.167724
v 0.574020 2.365758 -0.167724
v 0.187794 2.142769 -0.167724
v 0.673279 -0.005716 -0.728907
vn 0.9734 0.2290 -0.0000
vn 0.6883 0.2290 -0.6883
vn 0.5357 0.6528 -0.5357
vn -0.9734 0.2290 -0.0000
vn -0.7576 0.6528 -0.0000
vn -0.5357 0.6528 -0.5357
vn 0.7076 -0.1166 -0.6969
vn -0.0155 -0.1028 -0.9946
vn 0.0166 -0.0185 -0.9997
vn 0.9998 0.0076 -0.0201
vn 0.7054 -0.0075 -0.7088
vn 0.7053 0.0516 -0.7070
vn -0.8596 0.1327 0.4934
vn -0.0000 0.1372 0.9905
vn -0.0000 0.5030 0.8643
vn -0.0144 0.1047 0.9944
vn 0.0176 0.0199 0.9996
vn -0.7089 0.0077 0.7052
vn 0.7485 0.5030 -0.4321
vn 0.8590 0.1290 -0.4954
vn -0.0000 0.1300 -0.9915
vn -0.8296 -0.5172 0.2105
vn -0.9270 0.1285 -0.3524
vn -0.9371 0.3096 -0.1612
vn -0.9976 0.0644 0.0247
vn -0.6973 0.1170 0.7071
vn -0.0000 0.5030 -0.8643
vn -0.8590 0.1290 -0.4955
vn -0.8438 -0.1729 0.5080
vn 0.0071 -0.0340 0.9994
vn -0.0000 0.2290 0.9734
vn -0.6883 0.2290 0.6883
vn 0.8438 -0.1729 0.5080
vn -0.0000 -0.3861 0.9225
vn -0.0000 -0.8893 0.4574
vn -0.9990 -0.0409 -0.0184
vn -0.9997 -0.0094 -0.0211
vn 0.0143 0.0349 -0.9993
vn -0.0000 0.2290 -0.9734
vn 0.6865 0.0333 0.7263
vn 0.7256 0.0191 0.6878
vn -0.0000 0.1612 0.9869
vn 0.8552 0.1598 0.4931
vn 0.7109 0.5711 0.4104
vn -0.0000 1.0000 -0.0000
vn -0.5357 0.6528 0.5357
vn -0.0000 0.6528 0.7576
vn 0.5357 0.6528 0.5357
vn 0.7576 0.6528 -0.0000
vn -0.6888 0.2282 -0.6881
vn -0.7070 -0.0503 0.7054
vn 0.6879 0.2297 0.6885
vn -0.0000 0.5711 -0.8209
vn -0.7109 0.5711 -0.4104
vn -0.0000 0.1701 -0.9854
vn 0.8558 0.1644 -0.4905
vn 0.8434 -0.1715 -0.5092
vn -0.7109 0.5711 0.4104
vn -0.0000 0.5711 0.8209
vn 0.7109 0.5711 -0.4104
vn -0.8434 -0.1715 -0.5092
vn -0.0000 -0.3841 -0.9233
vn -0.0000 -0.8878 -0.4602
vn -0.0000 0.2651 0.9642
vn -0.8304 -0.5151 -0.2125
vn -0.0000 -0.9986 -0.0523
vn -0.0000 0.2656 -0.9641
vn -0.0000 0.9332 -0.3593
vn 0.9271 0.1282 0.3523
vn -0.0000 0.9368 0.3500
vn 0.8304 -0.5151 -0.2125
vn 0.9987 0.0430 -0.0290
vn 0.9374 0.3091 0.1602
vn -0.0000 0.9997 -0.0234
vn -0.9374 0.3091 0.1602
vn -0.8653 0.5013 -0.0028
vn -0.0000 -0.9990 0.0449
vn -0.8552 0.1598 0.4931
vn -0.7269 -0.0266 -0.6862
vn -0.6880 -0.0198 -0.7254
vn 0.9270 0.1285 -0.3524
vn -0.9271 0.1282 0.3523
vn 0.7485 0.5030 0.4321
vn 0.8296 -0.5172 0.2105
vn -0.7485 0.5030 -0.4321
vn -0.7485 0.5030 0.4321
vn -0.0000 0.9999 0.0157
vn 0.9371 0.3096 -0.1612
vn 0.8654 0.5011 0.0022
vn 0.8653 0.5013 -0.0028
vn -0.8654 0.5011 0.0022
vn -0.8558 0.1644 -0.4905
vn -0.0000 0.6528 -0.7575
vn 0.8596 0.1327 0.4934
vn 0.8591 -0.5113 -0.0249
vn 0.9979 -0.0591 0.0258
vn -0.8601 -0.5098 0.0214
vn -0.8591 -0.5113 -0.0249
vn 0.8601 -0.5098 0.0214
vt 0.753780 0.889487
vt 0.653442 0.889487
vt 0.653442 0.949175
vt 0.014340 0.889487
vt 0.014340 0.949175
vt 0.129731 0.949175
vt 0.653442 0.000000
vt 0.411203 0.000000
vt 0.411203 0.354236
vt 0.753780 0.354236
vt 0.653442 0.354236
vt 0.653442 0.696125
vt 0.527119 0.864980
vt 0.671413 0.864980
vt 0.616586 0.930798
vt 0.129731 0.354236
vt 0.265945 0.930798
vt 0.238532 0.864980
vt 0.094238 0.864980
vt 0.527119 0.338012
vt 0.238532 0.420749
vt 0.238532 0.338012
vt 0.014340 0.000000
vt 0.129731 0.000000
vt 0.149065 0.930798
vt 0.527119 0.420749
vt 0.411203 0.696125
vt 0.411203 0.889487
vt 0.129731 0.889487
vt 0.671413 0.420749
vt 0.671413 0.338012
vt 0.014340 0.696125
vt 0.014340 0.354236
vt 0.356916 1.000000
vt 0.411203 0.949175
vt 0.753780 0.949175
vt 0.129731 0.696125
vt 0.499706 0.930798
vt 0.382826 0.994645
vt 0.094238 0.420749
vt 0.671413 0.219443
vt 0.094238 0.338012
vt 0.753780 0.696125
vt 0.094238 0.219443
vt 0.238532 0.219443
vt 0.527119 0.219443
vt 0.753780 0.000000
s 1
usemtl Cactus
f 29/1/1 30/2/2 37/3/3
f 24/4/4 31/5/5 32/6/6
f 101/7/7 1/8/8 2/9/9
f 8/10/10 7/11/11 23/12/12
f 71/13/13 70/14/14 77/15/15
f 13/8/16 12/9/17 14/16/18
f 78/17/19 74/18/20 73/19/21
f 85/20/22 86/21/23 92/22/24
f 17/23/25 15/24/26 14/16/18
f 79/25/27 73/19/21 72/18/28
f 70/14/14 71/13/13 83/26/29
f 21/27/30 27/28/31 26/29/32
f 89/26/33 84/30/34 90/31/35
f 19/32/36 16/33/37 14/16/18
f 6/27/38 5/28/39 30/2/2
f 23/12/12 7/11/11 2/9/9
f 11/7/40 10/11/41 12/9/17
f 42/19/42 41/18/43 49/17/44
f 32/6/6 31/5/5 38/34/45
f 31/5/5 33/6/46 38/34/45
f 33/6/46 34/35/47 38/34/45
f 34/35/47 35/3/48 38/34/45
f 35/3/48 36/36/49 38/34/45
f 36/36/49 37/3/3 38/34/45
f 5/28/39 25/29/50 32/6/6
f 20/37/51 26/29/32 24/4/4
f 14/16/18 12/9/17 21/27/30
f 28/2/52 35/3/48 34/35/47
f 46/15/53 45/38/54 51/39/45
f 39/14/55 40/13/56 52/26/57
f 45/38/54 47/17/58 51/39/45
f 47/17/58 48/25/59 51/39/45
f 48/25/59 49/17/44 51/39/45
f 49/17/44 50/38/60 51/39/45
f 50/38/60 46/15/53 51/39/45
f 58/26/61 53/30/62 59/31/63
f 24/4/4 26/29/32 33/6/46
f 41/18/43 42/19/42 56/40/64
f 64/20/65 59/31/63 69/41/66
f 86/21/23 87/40/67 93/42/68
f 55/21/69 56/40/64 62/42/70
f 69/41/66 59/31/63 54/20/71
f 22/43/72 10/11/41 8/10/10
f 61/22/73 62/42/70 66/44/74
f 63/22/75 67/45/76 66/44/74
f 100/41/77 90/31/35 85/20/22
f 23/12/12 30/2/2 29/1/1
f 43/18/78 42/19/42 48/25/59
f 3/24/79 16/33/37 18/16/80
f 93/42/68 87/40/67 88/21/81
f 58/26/61 64/20/65 57/21/82
f 27/28/31 34/35/47 33/6/46
f 18/16/80 2/9/9 1/8/8
f 101/7/7 7/11/11 8/10/10
f 35/3/48 28/2/52 29/1/1
f 77/15/15 76/38/83 82/39/45
f 74/18/20 78/17/19 76/38/83
f 72/18/28 73/19/21 87/40/67
f 88/21/81 89/26/33 95/20/84
f 76/38/83 78/17/19 82/39/45
f 78/17/19 79/25/27 82/39/45
f 79/25/27 80/17/85 82/39/45
f 80/17/85 81/38/86 82/39/45
f 81/38/86 77/15/15 82/39/45
f 59/31/63 53/30/62 52/26/57
f 39/14/55 53/30/62 58/26/61
f 70/14/14 84/30/34 89/26/33
f 95/20/84 90/31/35 100/41/77
f 71/13/13 81/38/86 80/17/85
f 62/42/70 56/40/64 57/21/82
f 90/31/35 84/30/34 83/26/29
f 92/22/24 93/42/68 97/44/87
f 94/22/88 98/45/89 97/44/87
f 6/27/38 18/16/80 25/29/50
f 52/26/57 55/21/69 54/20/71
f 65/45/90 61/22/73 66/44/74
f 62/42/70 63/22/75 66/44/74
f 74/18/20 88/21/81 87/40/67
f 96/45/91 92/22/24 97/44/87
f 93/42/68 94/22/88 97/44/87
f 50/38/60 40/13/56 39/14/55
f 44/13/92 45/38/54 46/15/53
f 4/35/93 32/6/6 38/34/45
f 44/13/92 43/18/78 47/17/58
f 70/14/14 75/13/94 76/38/83
f 5/28/39 4/35/93 37/3/3
f 40/13/56 50/38/60 49/17/44
f 43/18/78 57/21/82 56/40/64
f 37/3/3 4/35/93 38/34/45
f 28/2/52 27/28/31 21/27/30
f 60/46/95 54/20/71 61/22/73
f 52/26/57 40/13/56 55/21/69
f 61/22/73 65/45/90 60/46/95
f 40/13/56 41/18/43 55/21/69
f 61/22/73 54/20/71 55/21/69
f 9/47/96 8/10/10 10/11/41
f 22/43/72 29/1/1 28/2/52
f 10/11/41 11/7/40 9/47/96
f 22/43/72 28/2/52 10/11/41
f 96/45/91 91/46/97 92/22/24
f 85/20/22 83/26/29 86/21/23
f 71/13/13 72/18/28 86/21/23
f 92/22/24 91/46/97 85/20/22
f 83/26/29 71/13/13 86/21/23
f 36/36/49 29/1/1 37/3/3
f 25/29/50 24/4/4 32/6/6
f 7/11/11 101/7/7 2/9/9
f 22/43/72 8/10/10 23/12/12
f 81/38/86 71/13/13 77/15/15
f 15/24/26 13/8/16 14/16/18
f 79/25/27 78/17/19 73/19/21
f 16/33/37 17/23/25 14/16/18
f 80/17/85 79/25/27 72/18/28
f 84/30/34 70/14/14 83/26/29
f 20/37/51 21/27/30 26/29/32
f 95/20/84 89/26/33 90/31/35
f 20/37/51 19/32/36 14/16/18
f 23/12/12 6/27/38 30/2/2
f 6/27/38 23/12/12 2/9/9
f 13/8/16 11/7/40 12/9/17
f 48/25/59 42/19/42 49/17/44
f 4/35/93 5/28/39 32/6/6
f 19/32/36 20/37/51 24/4/4
f 20/37/51 14/16/18 21/27/30
f 27/28/31 28/2/52 34/35/47
f 53/30/62 39/14/55 52/26/57
f 64/20/65 58/26/61 59/31/63
f 31/5/5 24/4/4 33/6/46
f 55/21/69 41/18/43 56/40/64
f 68/46/98 64/20/65 69/41/66
f 92/22/24 86/21/23 93/42/68
f 61/22/73 55/21/69 62/42/70
f 60/46/95 69/41/66 54/20/71
f 91/46/97 100/41/77 85/20/22
f 22/43/72 23/12/12 29/1/1
f 47/17/58 43/18/78 48/25/59
f 25/29/50 18/16/80 19/32/36
f 3/24/79 17/23/25 16/33/37
f 16/33/37 19/32/36 18/16/80
f 24/4/4 25/29/50 19/32/36
f 94/22/88 93/42/68 88/21/81
f 57/21/82 43/18/78 44/13/92
f 68/46/98 67/45/76 63/22/75
f 57/21/82 44/13/92 58/26/61
f 64/20/65 68/46/98 63/22/75
f 63/22/75 57/21/82 64/20/65
f 26/29/32 27/28/31 33/6/46
f 3/24/79 18/16/80 1/8/8
f 9/47/96 101/7/7 8/10/10
f 36/36/49 35/3/48 29/1/1
f 75/13/94 74/18/20 76/38/83
f 86/21/23 72/18/28 87/40/67
f 88/21/81 74/18/20 75/13/94
f 99/46/99 98/45/89 94/22/88
f 88/21/81 75/13/94 89/26/33
f 95/20/84 99/46/99 94/22/88
f 94/22/88 88/21/81 95/20/84
f 54/20/71 59/31/63 52/26/57
f 44/13/92 39/14/55 58/26/61
f 75/13/94 70/14/14 89/26/33
f 99/46/99 95/20/84 100/41/77
f 72/18/28 71/13/13 80/17/85
f 63/22/75 62/42/70 57/21/82
f 85/20/22 90/31/35 83/26/29
f 6/27/38 2/9/9 18/16/80
f 25/29/50 5/28/39 6/27/38
f 73/19/21 74/18/20 87/40/67
f 46/15/53 50/38/60 39/14/55
f 39/14/55 44/13/92 46/15/53
f 45/38/54 44/13/92 47/17/58
f 77/15/15 70/14/14 76/38/83
f 30/2/2 5/28/39 37/3/3
f 41/18/43 40/13/56 49/17/44
f 42/19/42 43/18/78 56/40/64
f 21/27/30 12/9/17 10/11/41
f 10/11/41 28/2/52 21/27/30
